<mxfile host="app.diagrams.net" modified="2023-07-04T02:53:24.582Z" agent="Mozilla/5.0 (Macintosh; Intel Mac OS X 10_15_7) AppleWebKit/537.36 (KHTML, like Gecko) Chrome/114.0.0.0 Safari/537.36" etag="RLcPWg_XRwNu09jJKgRS" version="21.5.2" type="device">
  <diagram id="C5RBs43oDa-KdzZeNtuy" name="Page-1">
    <mxGraphModel dx="1156" dy="717" grid="1" gridSize="10" guides="1" tooltips="1" connect="1" arrows="1" fold="1" page="1" pageScale="1" pageWidth="827" pageHeight="1169" math="0" shadow="0">
      <root>
        <mxCell id="WIyWlLk6GJQsqaUBKTNV-0" />
        <mxCell id="WIyWlLk6GJQsqaUBKTNV-1" parent="WIyWlLk6GJQsqaUBKTNV-0" />
        <mxCell id="wvFKqaVTDlEEXYAvHjyr-2" style="edgeStyle=orthogonalEdgeStyle;rounded=0;orthogonalLoop=1;jettySize=auto;html=1;exitX=1;exitY=0.5;exitDx=0;exitDy=0;entryX=0.5;entryY=0;entryDx=0;entryDy=0;" edge="1" parent="WIyWlLk6GJQsqaUBKTNV-1" source="WIyWlLk6GJQsqaUBKTNV-3" target="wvFKqaVTDlEEXYAvHjyr-0">
          <mxGeometry relative="1" as="geometry">
            <mxPoint x="420" y="160" as="targetPoint" />
            <Array as="points">
              <mxPoint x="378" y="150" />
            </Array>
          </mxGeometry>
        </mxCell>
        <mxCell id="WIyWlLk6GJQsqaUBKTNV-3" value="Test Case 01" style="rounded=1;whiteSpace=wrap;html=1;fontSize=12;glass=0;strokeWidth=1;shadow=0;" parent="WIyWlLk6GJQsqaUBKTNV-1" vertex="1">
          <mxGeometry x="250" y="130" width="120" height="40" as="geometry" />
        </mxCell>
        <mxCell id="wvFKqaVTDlEEXYAvHjyr-0" value="Test Steps" style="rounded=1;whiteSpace=wrap;html=1;fontSize=12;glass=0;strokeWidth=1;shadow=0;" vertex="1" parent="WIyWlLk6GJQsqaUBKTNV-1">
          <mxGeometry x="318" y="190" width="120" height="40" as="geometry" />
        </mxCell>
        <mxCell id="wvFKqaVTDlEEXYAvHjyr-10" value="" style="whiteSpace=wrap;html=1;aspect=fixed;" vertex="1" parent="WIyWlLk6GJQsqaUBKTNV-1">
          <mxGeometry x="560" y="180" width="200" height="200" as="geometry" />
        </mxCell>
        <mxCell id="wvFKqaVTDlEEXYAvHjyr-11" value="Page Object 01" style="rounded=1;whiteSpace=wrap;html=1;fontSize=12;glass=0;strokeWidth=1;shadow=0;" vertex="1" parent="WIyWlLk6GJQsqaUBKTNV-1">
          <mxGeometry x="600" y="220" width="120" height="40" as="geometry" />
        </mxCell>
        <mxCell id="wvFKqaVTDlEEXYAvHjyr-12" value="Page Object 02" style="rounded=1;whiteSpace=wrap;html=1;fontSize=12;glass=0;strokeWidth=1;shadow=0;" vertex="1" parent="WIyWlLk6GJQsqaUBKTNV-1">
          <mxGeometry x="600" y="270" width="120" height="40" as="geometry" />
        </mxCell>
        <mxCell id="wvFKqaVTDlEEXYAvHjyr-16" value="Page Object 03" style="rounded=1;whiteSpace=wrap;html=1;fontSize=12;glass=0;strokeWidth=1;shadow=0;" vertex="1" parent="WIyWlLk6GJQsqaUBKTNV-1">
          <mxGeometry x="600" y="320" width="120" height="40" as="geometry" />
        </mxCell>
        <mxCell id="wvFKqaVTDlEEXYAvHjyr-17" value="Locators" style="rounded=1;whiteSpace=wrap;html=1;fontSize=12;glass=0;strokeWidth=1;shadow=0;strokeColor=none;" vertex="1" parent="WIyWlLk6GJQsqaUBKTNV-1">
          <mxGeometry x="564" y="190" width="100" height="20" as="geometry" />
        </mxCell>
        <mxCell id="wvFKqaVTDlEEXYAvHjyr-18" value="Page Objects" style="rounded=1;whiteSpace=wrap;html=1;fontSize=12;glass=0;strokeWidth=1;shadow=0;strokeColor=none;" vertex="1" parent="WIyWlLk6GJQsqaUBKTNV-1">
          <mxGeometry x="610" y="150" width="100" height="20" as="geometry" />
        </mxCell>
        <mxCell id="wvFKqaVTDlEEXYAvHjyr-21" value="" style="rounded=0;html=1;jettySize=auto;orthogonalLoop=1;fontSize=11;endArrow=block;endFill=0;endSize=8;strokeWidth=1;shadow=0;labelBackgroundColor=none;edgeStyle=orthogonalEdgeStyle;exitX=1;exitY=0.5;exitDx=0;exitDy=0;entryX=0;entryY=0.5;entryDx=0;entryDy=0;startArrow=block;startFill=0;" edge="1" parent="WIyWlLk6GJQsqaUBKTNV-1" source="wvFKqaVTDlEEXYAvHjyr-0" target="wvFKqaVTDlEEXYAvHjyr-12">
          <mxGeometry x="-0.0714" y="10" relative="1" as="geometry">
            <mxPoint as="offset" />
            <mxPoint x="448" y="220" as="sourcePoint" />
            <mxPoint x="652" y="250" as="targetPoint" />
            <Array as="points">
              <mxPoint x="490" y="210" />
              <mxPoint x="490" y="290" />
            </Array>
          </mxGeometry>
        </mxCell>
        <mxCell id="wvFKqaVTDlEEXYAvHjyr-22" value="References" style="edgeLabel;html=1;align=center;verticalAlign=middle;resizable=0;points=[];" vertex="1" connectable="0" parent="wvFKqaVTDlEEXYAvHjyr-21">
          <mxGeometry x="-0.3482" relative="1" as="geometry">
            <mxPoint x="50" y="53" as="offset" />
          </mxGeometry>
        </mxCell>
        <mxCell id="WIyWlLk6GJQsqaUBKTNV-4" value="" style="rounded=0;html=1;jettySize=auto;orthogonalLoop=1;fontSize=11;endArrow=block;endFill=0;endSize=8;strokeWidth=1;shadow=0;labelBackgroundColor=none;edgeStyle=orthogonalEdgeStyle;exitX=1;exitY=0.25;exitDx=0;exitDy=0;startArrow=block;startFill=0;" parent="WIyWlLk6GJQsqaUBKTNV-1" source="wvFKqaVTDlEEXYAvHjyr-0" edge="1">
          <mxGeometry x="-0.0714" y="10" relative="1" as="geometry">
            <mxPoint as="offset" />
            <mxPoint x="480" y="210" as="sourcePoint" />
            <mxPoint x="600" y="240" as="targetPoint" />
            <Array as="points">
              <mxPoint x="502" y="200" />
              <mxPoint x="502" y="240" />
            </Array>
          </mxGeometry>
        </mxCell>
        <mxCell id="wvFKqaVTDlEEXYAvHjyr-9" value="References" style="edgeLabel;html=1;align=center;verticalAlign=middle;resizable=0;points=[];" vertex="1" connectable="0" parent="WIyWlLk6GJQsqaUBKTNV-4">
          <mxGeometry x="-0.3482" relative="1" as="geometry">
            <mxPoint x="40" y="38" as="offset" />
          </mxGeometry>
        </mxCell>
        <mxCell id="wvFKqaVTDlEEXYAvHjyr-23" value="" style="rounded=0;html=1;jettySize=auto;orthogonalLoop=1;fontSize=11;endArrow=block;endFill=0;endSize=8;strokeWidth=1;shadow=0;labelBackgroundColor=none;edgeStyle=orthogonalEdgeStyle;exitX=1;exitY=0.75;exitDx=0;exitDy=0;entryX=0;entryY=0.5;entryDx=0;entryDy=0;startArrow=block;startFill=0;" edge="1" parent="WIyWlLk6GJQsqaUBKTNV-1" source="wvFKqaVTDlEEXYAvHjyr-0" target="wvFKqaVTDlEEXYAvHjyr-16">
          <mxGeometry x="-0.0714" y="10" relative="1" as="geometry">
            <mxPoint as="offset" />
            <mxPoint x="448" y="230" as="sourcePoint" />
            <mxPoint x="610" y="300" as="targetPoint" />
            <Array as="points">
              <mxPoint x="480" y="220" />
              <mxPoint x="480" y="340" />
            </Array>
          </mxGeometry>
        </mxCell>
        <mxCell id="wvFKqaVTDlEEXYAvHjyr-24" value="References" style="edgeLabel;html=1;align=center;verticalAlign=middle;resizable=0;points=[];" vertex="1" connectable="0" parent="wvFKqaVTDlEEXYAvHjyr-23">
          <mxGeometry x="-0.3482" relative="1" as="geometry">
            <mxPoint x="60" y="70" as="offset" />
          </mxGeometry>
        </mxCell>
        <mxCell id="wvFKqaVTDlEEXYAvHjyr-25" value="" style="whiteSpace=wrap;html=1;aspect=fixed;" vertex="1" parent="WIyWlLk6GJQsqaUBKTNV-1">
          <mxGeometry x="599" y="445" width="140" height="140" as="geometry" />
        </mxCell>
        <mxCell id="wvFKqaVTDlEEXYAvHjyr-26" value="AbstractComponents" style="rounded=1;whiteSpace=wrap;html=1;fontSize=12;glass=0;strokeWidth=1;shadow=0;strokeColor=none;" vertex="1" parent="WIyWlLk6GJQsqaUBKTNV-1">
          <mxGeometry x="609" y="460" width="120" height="20" as="geometry" />
        </mxCell>
        <mxCell id="wvFKqaVTDlEEXYAvHjyr-27" style="edgeStyle=orthogonalEdgeStyle;rounded=0;orthogonalLoop=1;jettySize=auto;html=1;exitX=0.5;exitY=1;exitDx=0;exitDy=0;" edge="1" parent="WIyWlLk6GJQsqaUBKTNV-1" source="wvFKqaVTDlEEXYAvHjyr-25" target="wvFKqaVTDlEEXYAvHjyr-25">
          <mxGeometry relative="1" as="geometry" />
        </mxCell>
        <mxCell id="wvFKqaVTDlEEXYAvHjyr-31" value="" style="rounded=0;html=1;jettySize=auto;orthogonalLoop=1;fontSize=11;endArrow=none;endFill=0;endSize=8;strokeWidth=1;shadow=0;labelBackgroundColor=none;edgeStyle=orthogonalEdgeStyle;exitX=0.5;exitY=1;exitDx=0;exitDy=0;entryX=0.442;entryY=0.006;entryDx=0;entryDy=0;entryPerimeter=0;startArrow=block;startFill=0;" edge="1" parent="WIyWlLk6GJQsqaUBKTNV-1" source="wvFKqaVTDlEEXYAvHjyr-10" target="wvFKqaVTDlEEXYAvHjyr-25">
          <mxGeometry x="-0.0714" y="10" relative="1" as="geometry">
            <mxPoint as="offset" />
            <mxPoint x="448" y="230" as="sourcePoint" />
            <mxPoint x="610" y="350" as="targetPoint" />
            <Array as="points">
              <mxPoint x="661" y="380" />
            </Array>
          </mxGeometry>
        </mxCell>
        <mxCell id="wvFKqaVTDlEEXYAvHjyr-32" value="inherits using &quot;extends&quot;" style="edgeLabel;html=1;align=center;verticalAlign=middle;resizable=0;points=[];" vertex="1" connectable="0" parent="wvFKqaVTDlEEXYAvHjyr-31">
          <mxGeometry x="-0.3482" relative="1" as="geometry">
            <mxPoint x="-2" y="10" as="offset" />
          </mxGeometry>
        </mxCell>
        <mxCell id="wvFKqaVTDlEEXYAvHjyr-33" value="" style="whiteSpace=wrap;html=1;aspect=fixed;" vertex="1" parent="WIyWlLk6GJQsqaUBKTNV-1">
          <mxGeometry x="110" y="220" width="105" height="105" as="geometry" />
        </mxCell>
        <mxCell id="wvFKqaVTDlEEXYAvHjyr-34" value="BaseTest" style="rounded=1;whiteSpace=wrap;html=1;fontSize=12;glass=0;strokeWidth=1;shadow=0;strokeColor=none;" vertex="1" parent="WIyWlLk6GJQsqaUBKTNV-1">
          <mxGeometry x="132.5" y="240" width="60" as="geometry" />
        </mxCell>
        <mxCell id="wvFKqaVTDlEEXYAvHjyr-35" value="" style="rounded=0;html=1;jettySize=auto;orthogonalLoop=1;fontSize=11;endArrow=none;endFill=0;endSize=8;strokeWidth=1;shadow=0;labelBackgroundColor=none;edgeStyle=orthogonalEdgeStyle;entryX=0.5;entryY=0;entryDx=0;entryDy=0;startArrow=block;startFill=0;" edge="1" parent="WIyWlLk6GJQsqaUBKTNV-1" source="WIyWlLk6GJQsqaUBKTNV-3" target="wvFKqaVTDlEEXYAvHjyr-33">
          <mxGeometry x="-0.0714" y="10" relative="1" as="geometry">
            <mxPoint as="offset" />
            <mxPoint x="121" y="149" as="sourcePoint" />
            <mxPoint x="120" y="200" as="targetPoint" />
            <Array as="points">
              <mxPoint x="163" y="149" />
              <mxPoint x="163" y="200" />
              <mxPoint x="163" y="200" />
            </Array>
          </mxGeometry>
        </mxCell>
        <mxCell id="wvFKqaVTDlEEXYAvHjyr-36" value="inherits using &quot;extends&quot;" style="edgeLabel;html=1;align=center;verticalAlign=middle;resizable=0;points=[];" vertex="1" connectable="0" parent="wvFKqaVTDlEEXYAvHjyr-35">
          <mxGeometry x="-0.3482" relative="1" as="geometry">
            <mxPoint x="-24" y="31" as="offset" />
          </mxGeometry>
        </mxCell>
        <mxCell id="wvFKqaVTDlEEXYAvHjyr-39" value="Test Case 02" style="rounded=1;whiteSpace=wrap;html=1;fontSize=12;glass=0;strokeWidth=1;shadow=0;" vertex="1" parent="WIyWlLk6GJQsqaUBKTNV-1">
          <mxGeometry x="290" y="350" width="120" height="40" as="geometry" />
        </mxCell>
        <mxCell id="wvFKqaVTDlEEXYAvHjyr-40" value="Test Case 03" style="rounded=1;whiteSpace=wrap;html=1;fontSize=12;glass=0;strokeWidth=1;shadow=0;" vertex="1" parent="WIyWlLk6GJQsqaUBKTNV-1">
          <mxGeometry x="290" y="405" width="120" height="40" as="geometry" />
        </mxCell>
        <mxCell id="wvFKqaVTDlEEXYAvHjyr-41" value="" style="rounded=0;html=1;jettySize=auto;orthogonalLoop=1;fontSize=11;endArrow=block;endFill=0;endSize=8;strokeWidth=1;shadow=0;labelBackgroundColor=none;edgeStyle=orthogonalEdgeStyle;entryX=0;entryY=0.5;entryDx=0;entryDy=0;exitX=0.5;exitY=1;exitDx=0;exitDy=0;" edge="1" parent="WIyWlLk6GJQsqaUBKTNV-1" source="wvFKqaVTDlEEXYAvHjyr-33" target="wvFKqaVTDlEEXYAvHjyr-39">
          <mxGeometry x="-0.0714" y="10" relative="1" as="geometry">
            <mxPoint as="offset" />
            <mxPoint x="260" y="159" as="sourcePoint" />
            <mxPoint x="173" y="230" as="targetPoint" />
            <Array as="points">
              <mxPoint x="163" y="370" />
            </Array>
          </mxGeometry>
        </mxCell>
        <mxCell id="wvFKqaVTDlEEXYAvHjyr-43" value="inherits using &quot;extends&quot;" style="edgeLabel;html=1;align=center;verticalAlign=middle;resizable=0;points=[];" vertex="1" connectable="0" parent="wvFKqaVTDlEEXYAvHjyr-41">
          <mxGeometry x="-0.1923" relative="1" as="geometry">
            <mxPoint x="17" y="-10" as="offset" />
          </mxGeometry>
        </mxCell>
        <mxCell id="wvFKqaVTDlEEXYAvHjyr-44" value="" style="rounded=0;html=1;jettySize=auto;orthogonalLoop=1;fontSize=11;endArrow=block;endFill=0;endSize=8;strokeWidth=1;shadow=0;labelBackgroundColor=none;edgeStyle=orthogonalEdgeStyle;entryX=0;entryY=0.5;entryDx=0;entryDy=0;exitX=0.181;exitY=1.01;exitDx=0;exitDy=0;exitPerimeter=0;" edge="1" parent="WIyWlLk6GJQsqaUBKTNV-1">
          <mxGeometry x="-0.0714" y="10" relative="1" as="geometry">
            <mxPoint as="offset" />
            <mxPoint x="129.005" y="324.99999999999994" as="sourcePoint" />
            <mxPoint x="290" y="423.95" as="targetPoint" />
            <Array as="points">
              <mxPoint x="130" y="324.95" />
              <mxPoint x="130" y="423.95" />
            </Array>
          </mxGeometry>
        </mxCell>
        <mxCell id="wvFKqaVTDlEEXYAvHjyr-45" value="inherits using &quot;extends&quot;" style="edgeLabel;html=1;align=center;verticalAlign=middle;resizable=0;points=[];" vertex="1" connectable="0" parent="wvFKqaVTDlEEXYAvHjyr-44">
          <mxGeometry x="-0.1923" relative="1" as="geometry">
            <mxPoint x="45" y="-14" as="offset" />
          </mxGeometry>
        </mxCell>
        <mxCell id="wvFKqaVTDlEEXYAvHjyr-46" value="" style="whiteSpace=wrap;html=1;aspect=fixed;" vertex="1" parent="WIyWlLk6GJQsqaUBKTNV-1">
          <mxGeometry x="160" y="490" width="105" height="105" as="geometry" />
        </mxCell>
        <mxCell id="wvFKqaVTDlEEXYAvHjyr-47" value="Data" style="rounded=1;whiteSpace=wrap;html=1;fontSize=12;glass=0;strokeWidth=1;shadow=0;strokeColor=none;" vertex="1" parent="WIyWlLk6GJQsqaUBKTNV-1">
          <mxGeometry x="182.5" y="510" width="60" as="geometry" />
        </mxCell>
        <mxCell id="wvFKqaVTDlEEXYAvHjyr-48" value="JSON File" style="rounded=1;whiteSpace=wrap;html=1;fontSize=12;glass=0;strokeWidth=1;shadow=0;" vertex="1" parent="WIyWlLk6GJQsqaUBKTNV-1">
          <mxGeometry x="168.75" y="528.75" width="87.5" height="27.5" as="geometry" />
        </mxCell>
        <mxCell id="wvFKqaVTDlEEXYAvHjyr-49" value="" style="rounded=0;html=1;jettySize=auto;orthogonalLoop=1;fontSize=11;endArrow=none;endFill=0;endSize=8;strokeWidth=1;shadow=0;labelBackgroundColor=none;edgeStyle=orthogonalEdgeStyle;exitX=0;exitY=0.5;exitDx=0;exitDy=0;entryX=-0.004;entryY=0.568;entryDx=0;entryDy=0;entryPerimeter=0;startArrow=block;startFill=0;" edge="1" parent="WIyWlLk6GJQsqaUBKTNV-1" source="wvFKqaVTDlEEXYAvHjyr-33" target="wvFKqaVTDlEEXYAvHjyr-46">
          <mxGeometry x="-0.0714" y="10" relative="1" as="geometry">
            <mxPoint as="offset" />
            <mxPoint x="260" y="159" as="sourcePoint" />
            <mxPoint x="150" y="550" as="targetPoint" />
            <Array as="points">
              <mxPoint x="80" y="272" />
              <mxPoint x="80" y="550" />
            </Array>
          </mxGeometry>
        </mxCell>
        <mxCell id="wvFKqaVTDlEEXYAvHjyr-50" value="reads" style="edgeLabel;html=1;align=center;verticalAlign=middle;resizable=0;points=[];" vertex="1" connectable="0" parent="wvFKqaVTDlEEXYAvHjyr-49">
          <mxGeometry x="-0.3482" relative="1" as="geometry">
            <mxPoint y="121" as="offset" />
          </mxGeometry>
        </mxCell>
        <mxCell id="wvFKqaVTDlEEXYAvHjyr-51" value="DataProvider" style="rounded=1;whiteSpace=wrap;html=1;fontSize=12;glass=0;strokeWidth=1;shadow=0;" vertex="1" parent="WIyWlLk6GJQsqaUBKTNV-1">
          <mxGeometry x="256.25" y="262.5" width="90" height="20" as="geometry" />
        </mxCell>
        <mxCell id="wvFKqaVTDlEEXYAvHjyr-53" value="" style="endArrow=blockThin;html=1;rounded=0;exitX=1;exitY=0.5;exitDx=0;exitDy=0;entryX=0;entryY=0.5;entryDx=0;entryDy=0;startArrow=blockThin;startFill=1;endFill=1;" edge="1" parent="WIyWlLk6GJQsqaUBKTNV-1" source="wvFKqaVTDlEEXYAvHjyr-33" target="wvFKqaVTDlEEXYAvHjyr-51">
          <mxGeometry width="50" height="50" relative="1" as="geometry">
            <mxPoint x="330" y="370" as="sourcePoint" />
            <mxPoint x="380" y="320" as="targetPoint" />
          </mxGeometry>
        </mxCell>
        <mxCell id="wvFKqaVTDlEEXYAvHjyr-54" value="" style="endArrow=blockThin;html=1;rounded=0;exitX=0.5;exitY=1;exitDx=0;exitDy=0;entryX=0.5;entryY=0;entryDx=0;entryDy=0;startArrow=blockThin;startFill=1;endFill=1;" edge="1" parent="WIyWlLk6GJQsqaUBKTNV-1">
          <mxGeometry width="50" height="50" relative="1" as="geometry">
            <mxPoint x="300.25" y="282.5" as="sourcePoint" />
            <mxPoint x="349" y="350" as="targetPoint" />
            <Array as="points">
              <mxPoint x="300" y="320" />
              <mxPoint x="349" y="320" />
            </Array>
          </mxGeometry>
        </mxCell>
        <mxCell id="wvFKqaVTDlEEXYAvHjyr-56" value="" style="endArrow=blockThin;html=1;rounded=0;exitX=0.5;exitY=0;exitDx=0;exitDy=0;entryX=0.343;entryY=1.01;entryDx=0;entryDy=0;entryPerimeter=0;endFill=1;startArrow=blockThin;startFill=1;" edge="1" parent="WIyWlLk6GJQsqaUBKTNV-1" source="wvFKqaVTDlEEXYAvHjyr-51" target="WIyWlLk6GJQsqaUBKTNV-3">
          <mxGeometry width="50" height="50" relative="1" as="geometry">
            <mxPoint x="310.25" y="292.5" as="sourcePoint" />
            <mxPoint x="359" y="360" as="targetPoint" />
            <Array as="points">
              <mxPoint x="301" y="240" />
              <mxPoint x="290" y="240" />
            </Array>
          </mxGeometry>
        </mxCell>
        <mxCell id="wvFKqaVTDlEEXYAvHjyr-57" value="" style="whiteSpace=wrap;html=1;aspect=fixed;" vertex="1" parent="WIyWlLk6GJQsqaUBKTNV-1">
          <mxGeometry x="370" y="490" width="130" height="130" as="geometry" />
        </mxCell>
        <mxCell id="wvFKqaVTDlEEXYAvHjyr-58" value="Listeners" style="rounded=1;whiteSpace=wrap;html=1;fontSize=12;glass=0;strokeWidth=1;shadow=0;strokeColor=none;" vertex="1" parent="WIyWlLk6GJQsqaUBKTNV-1">
          <mxGeometry x="402.5" y="510" width="60" as="geometry" />
        </mxCell>
        <mxCell id="wvFKqaVTDlEEXYAvHjyr-60" value="Before" style="rounded=1;whiteSpace=wrap;html=1;fontSize=12;glass=0;strokeWidth=1;shadow=0;" vertex="1" parent="WIyWlLk6GJQsqaUBKTNV-1">
          <mxGeometry x="400.5" y="528.75" width="64" height="21.25" as="geometry" />
        </mxCell>
        <mxCell id="wvFKqaVTDlEEXYAvHjyr-62" value="After" style="rounded=1;whiteSpace=wrap;html=1;fontSize=12;glass=0;strokeWidth=1;shadow=0;" vertex="1" parent="WIyWlLk6GJQsqaUBKTNV-1">
          <mxGeometry x="401.5" y="556.25" width="64" height="21.25" as="geometry" />
        </mxCell>
        <mxCell id="wvFKqaVTDlEEXYAvHjyr-63" value="Retry" style="rounded=1;whiteSpace=wrap;html=1;fontSize=12;glass=0;strokeWidth=1;shadow=0;" vertex="1" parent="WIyWlLk6GJQsqaUBKTNV-1">
          <mxGeometry x="402.5" y="585" width="64" height="21.25" as="geometry" />
        </mxCell>
        <mxCell id="wvFKqaVTDlEEXYAvHjyr-64" value="" style="rounded=0;html=1;jettySize=auto;orthogonalLoop=1;fontSize=11;endArrow=block;endFill=0;endSize=8;strokeWidth=1;shadow=0;labelBackgroundColor=none;edgeStyle=orthogonalEdgeStyle;entryX=0.75;entryY=0;entryDx=0;entryDy=0;startArrow=block;startFill=0;" edge="1" parent="WIyWlLk6GJQsqaUBKTNV-1">
          <mxGeometry x="-0.0714" y="10" relative="1" as="geometry">
            <mxPoint as="offset" />
            <mxPoint x="410" y="370" as="sourcePoint" />
            <mxPoint x="464.48" y="490" as="targetPoint" />
            <Array as="points">
              <mxPoint x="464" y="370" />
              <mxPoint x="464" y="480" />
            </Array>
          </mxGeometry>
        </mxCell>
        <mxCell id="wvFKqaVTDlEEXYAvHjyr-65" value="References" style="edgeLabel;html=1;align=center;verticalAlign=middle;resizable=0;points=[];" vertex="1" connectable="0" parent="wvFKqaVTDlEEXYAvHjyr-64">
          <mxGeometry x="-0.3482" relative="1" as="geometry">
            <mxPoint x="4" y="45" as="offset" />
          </mxGeometry>
        </mxCell>
        <mxCell id="wvFKqaVTDlEEXYAvHjyr-66" value="" style="rounded=0;html=1;jettySize=auto;orthogonalLoop=1;fontSize=11;endArrow=block;endFill=0;endSize=8;strokeWidth=1;shadow=0;labelBackgroundColor=none;edgeStyle=orthogonalEdgeStyle;entryX=0.415;entryY=0.015;entryDx=0;entryDy=0;exitX=1;exitY=0.5;exitDx=0;exitDy=0;entryPerimeter=0;startArrow=block;startFill=0;" edge="1" parent="WIyWlLk6GJQsqaUBKTNV-1">
          <mxGeometry x="-0.0714" y="10" relative="1" as="geometry">
            <mxPoint as="offset" />
            <mxPoint x="410" y="423.05" as="sourcePoint" />
            <mxPoint x="423.95000000000005" y="490" as="targetPoint" />
            <Array as="points">
              <mxPoint x="424" y="423.05" />
            </Array>
          </mxGeometry>
        </mxCell>
        <mxCell id="wvFKqaVTDlEEXYAvHjyr-67" value="References" style="edgeLabel;html=1;align=center;verticalAlign=middle;resizable=0;points=[];" vertex="1" connectable="0" parent="wvFKqaVTDlEEXYAvHjyr-66">
          <mxGeometry x="-0.3482" relative="1" as="geometry">
            <mxPoint x="4" y="24" as="offset" />
          </mxGeometry>
        </mxCell>
        <mxCell id="wvFKqaVTDlEEXYAvHjyr-74" value="" style="rounded=0;whiteSpace=wrap;html=1;" vertex="1" parent="WIyWlLk6GJQsqaUBKTNV-1">
          <mxGeometry x="366" y="700" width="130" height="60" as="geometry" />
        </mxCell>
        <mxCell id="wvFKqaVTDlEEXYAvHjyr-69" value="Extent" style="rounded=1;whiteSpace=wrap;html=1;fontSize=12;glass=0;strokeWidth=1;shadow=0;strokeColor=none;" vertex="1" parent="WIyWlLk6GJQsqaUBKTNV-1">
          <mxGeometry x="400" y="713" width="60" as="geometry" />
        </mxCell>
        <mxCell id="wvFKqaVTDlEEXYAvHjyr-70" value="HTML Report" style="rounded=1;whiteSpace=wrap;html=1;fontSize=12;glass=0;strokeWidth=1;shadow=0;" vertex="1" parent="WIyWlLk6GJQsqaUBKTNV-1">
          <mxGeometry x="391" y="728.75" width="80" height="21.25" as="geometry" />
        </mxCell>
        <mxCell id="wvFKqaVTDlEEXYAvHjyr-75" value="" style="endArrow=blockThin;html=1;rounded=0;entryX=0.5;entryY=0;entryDx=0;entryDy=0;startArrow=blockThin;startFill=1;endFill=1;" edge="1" parent="WIyWlLk6GJQsqaUBKTNV-1" target="wvFKqaVTDlEEXYAvHjyr-74">
          <mxGeometry width="50" height="50" relative="1" as="geometry">
            <mxPoint x="431" y="620" as="sourcePoint" />
            <mxPoint x="359" y="360" as="targetPoint" />
            <Array as="points" />
          </mxGeometry>
        </mxCell>
        <mxCell id="wvFKqaVTDlEEXYAvHjyr-76" value="" style="rounded=0;whiteSpace=wrap;html=1;" vertex="1" parent="WIyWlLk6GJQsqaUBKTNV-1">
          <mxGeometry x="147.5" y="624.75" width="130" height="91.25" as="geometry" />
        </mxCell>
        <mxCell id="wvFKqaVTDlEEXYAvHjyr-77" value="XML" style="rounded=1;whiteSpace=wrap;html=1;fontSize=12;glass=0;strokeWidth=1;shadow=0;strokeColor=none;" vertex="1" parent="WIyWlLk6GJQsqaUBKTNV-1">
          <mxGeometry x="181.5" y="637.75" width="60" as="geometry" />
        </mxCell>
        <mxCell id="wvFKqaVTDlEEXYAvHjyr-78" value="Test Run 01" style="rounded=1;whiteSpace=wrap;html=1;fontSize=12;glass=0;strokeWidth=1;shadow=0;" vertex="1" parent="WIyWlLk6GJQsqaUBKTNV-1">
          <mxGeometry x="172.5" y="653.5" width="80" height="21.25" as="geometry" />
        </mxCell>
        <mxCell id="wvFKqaVTDlEEXYAvHjyr-79" value="" style="rounded=0;whiteSpace=wrap;html=1;" vertex="1" parent="WIyWlLk6GJQsqaUBKTNV-1">
          <mxGeometry x="140.5" y="730" width="130" height="130" as="geometry" />
        </mxCell>
        <mxCell id="wvFKqaVTDlEEXYAvHjyr-80" value="pom.xml" style="rounded=1;whiteSpace=wrap;html=1;fontSize=12;glass=0;strokeWidth=1;shadow=0;strokeColor=none;" vertex="1" parent="WIyWlLk6GJQsqaUBKTNV-1">
          <mxGeometry x="181.5" y="783" width="60" as="geometry" />
        </mxCell>
        <mxCell id="wvFKqaVTDlEEXYAvHjyr-81" value="Profile 01" style="rounded=1;whiteSpace=wrap;html=1;fontSize=12;glass=0;strokeWidth=1;shadow=0;" vertex="1" parent="WIyWlLk6GJQsqaUBKTNV-1">
          <mxGeometry x="172.5" y="798.75" width="80" height="21.25" as="geometry" />
        </mxCell>
        <mxCell id="wvFKqaVTDlEEXYAvHjyr-82" value="Test Run 02" style="rounded=1;whiteSpace=wrap;html=1;fontSize=12;glass=0;strokeWidth=1;shadow=0;" vertex="1" parent="WIyWlLk6GJQsqaUBKTNV-1">
          <mxGeometry x="172.5" y="684.75" width="80" height="21.25" as="geometry" />
        </mxCell>
        <mxCell id="wvFKqaVTDlEEXYAvHjyr-83" value="Profile 02" style="rounded=1;whiteSpace=wrap;html=1;fontSize=12;glass=0;strokeWidth=1;shadow=0;" vertex="1" parent="WIyWlLk6GJQsqaUBKTNV-1">
          <mxGeometry x="172.5" y="828.38" width="80" height="21.25" as="geometry" />
        </mxCell>
        <mxCell id="wvFKqaVTDlEEXYAvHjyr-84" value="Profile 03" style="rounded=1;whiteSpace=wrap;html=1;fontSize=12;glass=0;strokeWidth=1;shadow=0;" vertex="1" parent="WIyWlLk6GJQsqaUBKTNV-1">
          <mxGeometry x="172.5" y="860" width="80" height="21.25" as="geometry" />
        </mxCell>
        <mxCell id="wvFKqaVTDlEEXYAvHjyr-85" value="" style="rounded=0;html=1;jettySize=auto;orthogonalLoop=1;fontSize=11;endArrow=block;endFill=0;endSize=8;strokeWidth=1;shadow=0;labelBackgroundColor=none;edgeStyle=orthogonalEdgeStyle;startArrow=none;startFill=0;exitX=0.473;exitY=1;exitDx=0;exitDy=0;exitPerimeter=0;entryX=0.488;entryY=0;entryDx=0;entryDy=0;entryPerimeter=0;" edge="1" parent="WIyWlLk6GJQsqaUBKTNV-1">
          <mxGeometry x="-0.0714" y="10" relative="1" as="geometry">
            <mxPoint as="offset" />
            <mxPoint x="209.99" y="716" as="sourcePoint" />
            <mxPoint x="209.94000000000005" y="770" as="targetPoint" />
            <Array as="points">
              <mxPoint x="210" y="740" />
              <mxPoint x="210" y="740" />
            </Array>
          </mxGeometry>
        </mxCell>
        <mxCell id="wvFKqaVTDlEEXYAvHjyr-86" value="uses" style="edgeLabel;html=1;align=center;verticalAlign=middle;resizable=0;points=[];" vertex="1" connectable="0" parent="wvFKqaVTDlEEXYAvHjyr-85">
          <mxGeometry x="-0.3482" relative="1" as="geometry">
            <mxPoint x="3" y="6" as="offset" />
          </mxGeometry>
        </mxCell>
        <mxCell id="wvFKqaVTDlEEXYAvHjyr-87" value="" style="rounded=0;whiteSpace=wrap;html=1;" vertex="1" parent="WIyWlLk6GJQsqaUBKTNV-1">
          <mxGeometry x="370" y="808" width="130" height="60" as="geometry" />
        </mxCell>
        <mxCell id="wvFKqaVTDlEEXYAvHjyr-88" value="Maven" style="rounded=1;whiteSpace=wrap;html=1;fontSize=12;glass=0;strokeWidth=1;shadow=0;strokeColor=none;" vertex="1" parent="WIyWlLk6GJQsqaUBKTNV-1">
          <mxGeometry x="406" y="816.38" width="60" height="11.62" as="geometry" />
        </mxCell>
        <mxCell id="wvFKqaVTDlEEXYAvHjyr-89" value="Commands" style="rounded=1;whiteSpace=wrap;html=1;fontSize=12;glass=0;strokeWidth=1;shadow=0;" vertex="1" parent="WIyWlLk6GJQsqaUBKTNV-1">
          <mxGeometry x="395" y="836.75" width="80" height="21.25" as="geometry" />
        </mxCell>
        <mxCell id="wvFKqaVTDlEEXYAvHjyr-92" value="" style="rounded=0;html=1;jettySize=auto;orthogonalLoop=1;fontSize=11;endArrow=block;endFill=0;endSize=8;strokeWidth=1;shadow=0;labelBackgroundColor=none;edgeStyle=orthogonalEdgeStyle;startArrow=none;startFill=0;exitX=0;exitY=0.5;exitDx=0;exitDy=0;entryX=1;entryY=0.5;entryDx=0;entryDy=0;" edge="1" parent="WIyWlLk6GJQsqaUBKTNV-1" source="wvFKqaVTDlEEXYAvHjyr-87">
          <mxGeometry x="-0.0714" y="10" relative="1" as="geometry">
            <mxPoint as="offset" />
            <mxPoint x="219.99" y="726" as="sourcePoint" />
            <mxPoint x="276.5" y="835" as="targetPoint" />
            <Array as="points">
              <mxPoint x="320" y="838" />
              <mxPoint x="320" y="835" />
            </Array>
          </mxGeometry>
        </mxCell>
        <mxCell id="wvFKqaVTDlEEXYAvHjyr-93" value="uses" style="edgeLabel;html=1;align=center;verticalAlign=middle;resizable=0;points=[];" vertex="1" connectable="0" parent="wvFKqaVTDlEEXYAvHjyr-92">
          <mxGeometry x="-0.3482" relative="1" as="geometry">
            <mxPoint x="-9" y="-1" as="offset" />
          </mxGeometry>
        </mxCell>
        <mxCell id="wvFKqaVTDlEEXYAvHjyr-95" value="FRAMEWORK ARCHITECTURE" style="rounded=1;whiteSpace=wrap;html=1;fontSize=25;glass=0;strokeWidth=1;shadow=0;strokeColor=none;" vertex="1" parent="WIyWlLk6GJQsqaUBKTNV-1">
          <mxGeometry x="166.5" y="50" width="533.5" height="20" as="geometry" />
        </mxCell>
      </root>
    </mxGraphModel>
  </diagram>
</mxfile>
